<mxfile host="Electron" modified="2025-01-02T20:59:58.957Z" agent="Mozilla/5.0 (Windows NT 10.0; Win64; x64) AppleWebKit/537.36 (KHTML, like Gecko) draw.io/22.1.16 Chrome/120.0.6099.109 Electron/28.1.0 Safari/537.36" etag="gy98hFZ74eFgVGFG_Rrf" version="22.1.16" type="device">
  <diagram name="Side-1" id="By0NFvcPGAohgE1WcNvy">
    <mxGraphModel dx="1098" dy="1180" grid="1" gridSize="10" guides="1" tooltips="1" connect="1" arrows="1" fold="1" page="1" pageScale="1" pageWidth="827" pageHeight="1169" math="0" shadow="0">
      <root>
        <mxCell id="0" />
        <mxCell id="1" parent="0" />
        <mxCell id="AbCKkabeDQmWhhiteFrC-1" value="BiquadSegmentStart" style="swimlane;fontStyle=1;align=center;verticalAlign=top;childLayout=stackLayout;horizontal=1;startSize=26;horizontalStack=0;resizeParent=1;resizeParentMax=0;resizeLast=0;collapsible=1;marginBottom=0;whiteSpace=wrap;html=1;" vertex="1" parent="1">
          <mxGeometry x="334" y="360" width="390" height="170" as="geometry" />
        </mxCell>
        <mxCell id="AbCKkabeDQmWhhiteFrC-2" value="- isReady: bool&lt;br&gt;- biquad: XBiquadv2start" style="text;strokeColor=none;fillColor=none;align=left;verticalAlign=top;spacingLeft=4;spacingRight=4;overflow=hidden;rotatable=0;points=[[0,0.5],[1,0.5]];portConstraint=eastwest;whiteSpace=wrap;html=1;" vertex="1" parent="AbCKkabeDQmWhhiteFrC-1">
          <mxGeometry y="26" width="390" height="34" as="geometry" />
        </mxCell>
        <mxCell id="AbCKkabeDQmWhhiteFrC-3" value="" style="line;strokeWidth=1;fillColor=none;align=left;verticalAlign=middle;spacingTop=-1;spacingLeft=3;spacingRight=3;rotatable=0;labelPosition=right;points=[];portConstraint=eastwest;strokeColor=inherit;" vertex="1" parent="AbCKkabeDQmWhhiteFrC-1">
          <mxGeometry y="60" width="390" height="8" as="geometry" />
        </mxCell>
        <mxCell id="AbCKkabeDQmWhhiteFrC-4" value="+ BiquadSegmentStart(): BiquadSegmentStart&lt;br&gt;+ BiquadSegmentStart(uint16_t): BiquadSegmentStart&lt;br&gt;+ Write(uint32_t, uint32_t): void&lt;br&gt;+ SetCoefficients(uint32_t, uint32_t, uint32_t, uint32_t, uint32_t): void&lt;br&gt;&lt;br&gt;- InitBiquad(uint16_t): int" style="text;strokeColor=none;fillColor=none;align=left;verticalAlign=top;spacingLeft=4;spacingRight=4;overflow=hidden;rotatable=0;points=[[0,0.5],[1,0.5]];portConstraint=eastwest;whiteSpace=wrap;html=1;" vertex="1" parent="AbCKkabeDQmWhhiteFrC-1">
          <mxGeometry y="68" width="390" height="102" as="geometry" />
        </mxCell>
      </root>
    </mxGraphModel>
  </diagram>
</mxfile>
